<svg width="56" height="56" viewBox="0 0 56 56" fill="none" xmlns="http://www.w3.org/2000/svg">
<path d="M17.5 22.5837L8.75581 17.5L0 22.5837V32.7279L8.75581 37.8L17.5 32.7279V22.5837ZM15.6171 31.6368L8.75581 35.6063L1.89441 31.6368V23.6747L8.75581 19.6937L15.6171 23.6747V31.6368Z" fill="#0A0A0A"/>
<path d="M36.4 22.5721L27.9944 17.5L19.6 22.5721V32.7163L27.9944 37.8L36.4 32.7163V22.5721Z" fill="#0A0A0A"/>
<path d="M47.2443 17.5L38.5 22.5837V32.7279L47.2443 37.8L56 32.7279V22.5837L47.2443 17.5ZM54.1058 31.6368L47.2443 35.6063L40.3829 31.6368V23.6747L47.2443 19.6937L54.1058 23.6747V31.6368Z" fill="#0A0A0A"/>
<path d="M9.79999 39.3837V49.5279L18.5673 54.6L27.3 49.5279V39.3837L18.5673 34.3L9.79999 39.3837ZM25.385 48.4717L18.5673 52.4063L11.6457 48.4717V40.4747L18.5673 36.4937L25.4081 40.4747L25.385 48.4717Z" fill="#0A0A0A"/>
<path d="M28.7 39.3837V49.5279L37.4442 54.6L46.2 49.5279V39.3837L37.4442 34.3L28.7 39.3837ZM44.3056 48.4717L37.4442 52.4412L30.5944 48.4717V40.4747L37.4442 36.4937L44.3056 40.4747V48.4717Z" fill="#0A0A0A"/>
<path d="M27.3 15.9279V5.74889L18.5789 0.699997L9.79999 5.74889V15.8931L18.5789 21L27.3 15.9279ZM11.6482 6.90956L18.5789 2.89366L25.4057 6.90956V14.8717L18.5789 18.8063L11.6482 14.8368V6.90956Z" fill="#0A0A0A"/>
<path d="M46.2 15.9627V5.78368L37.4442 0.699997L28.7 5.78368V15.9279L37.4442 21L46.2 15.9627ZM30.5944 6.94435L37.4442 2.96331L44.3056 6.94435V14.9065L37.4442 18.876L30.5944 14.9065V6.94435Z" fill="#0A0A0A"/>
</svg>
