<svg width="122" height="51" viewBox="0 0 122 51" fill="none" xmlns="http://www.w3.org/2000/svg">
<path d="M82.8515 23.6341L82.8121 16.2503L79.263 22.2609H77.5279L73.9985 16.4494V23.6341H70.3903V9.70244H73.6042L78.4546 17.743L83.1867 9.70244H86.4006L86.4401 23.6341H82.8515Z" fill="#0A0A0A"/>
<path d="M93.974 12.6679C95.7486 12.6679 97.1025 13.0792 98.0358 13.9019C98.969 14.7112 99.4357 15.9584 99.4357 17.6435V23.6341H95.9457V22.241C95.4068 23.2892 94.3552 23.8133 92.791 23.8133C91.9629 23.8133 91.2465 23.6673 90.6418 23.3754C90.0372 23.0835 89.5771 22.6921 89.2616 22.2012C88.9593 21.697 88.8081 21.1264 88.8081 20.4896C88.8081 19.4679 89.1959 18.6784 89.9714 18.1212C90.747 17.5506 91.9432 17.2654 93.56 17.2654H95.6894C95.6237 16.1243 94.8679 15.5538 93.4219 15.5538C92.9093 15.5538 92.3901 15.64 91.8643 15.8125C91.3385 15.9717 90.8916 16.1973 90.5235 16.4892L89.2616 13.9218C89.8531 13.5237 90.5695 13.2185 91.4108 13.0062C92.2652 12.7807 93.1196 12.6679 93.974 12.6679ZM93.836 21.425C94.2698 21.425 94.651 21.3188 94.9796 21.1065C95.3082 20.8942 95.5448 20.5824 95.6894 20.1711V19.2357H94.0726C92.9816 19.2357 92.4361 19.6006 92.4361 20.3303C92.4361 20.662 92.561 20.9274 92.8107 21.1264C93.0605 21.3255 93.4022 21.425 93.836 21.425Z" fill="#0A0A0A"/>
<path d="M102.195 12.847H105.941V23.6341H102.195V12.847ZM104.068 11.6529C103.384 11.6529 102.832 11.4605 102.412 11.0757C101.991 10.6909 101.781 10.2133 101.781 9.64273C101.781 9.07219 101.991 8.59453 102.412 8.20975C102.832 7.82497 103.384 7.63258 104.068 7.63258C104.751 7.63258 105.303 7.81834 105.724 8.18985C106.145 8.5481 106.355 9.01249 106.355 9.58302C106.355 10.1801 106.145 10.6777 105.724 11.0757C105.303 11.4605 104.751 11.6529 104.068 11.6529Z" fill="#0A0A0A"/>
<path d="M115.73 12.6679C117.058 12.6679 118.122 13.0659 118.924 13.862C119.739 14.6581 120.147 15.8589 120.147 17.4644V23.6341H116.4V18.0814C116.4 16.6086 115.816 15.8722 114.646 15.8722C114.002 15.8722 113.482 16.0845 113.088 16.5091C112.707 16.9337 112.516 17.5705 112.516 18.4197V23.6341H108.77V12.847H112.339V14.0213C112.759 13.5834 113.259 13.2517 113.837 13.0261C114.416 12.7873 115.047 12.6679 115.73 12.6679Z" fill="#0A0A0A"/>
<path d="M76.9364 31.3264C77.9091 31.3264 78.7898 31.5586 79.5785 32.023C80.3803 32.4741 81.0113 33.1243 81.4713 33.9735C81.9445 34.8094 82.1812 35.7846 82.1812 36.8991C82.1812 38.0137 81.9445 38.9955 81.4713 39.8447C81.0113 40.6806 80.3803 41.3307 79.5785 41.7951C78.7898 42.2462 77.9091 42.4718 76.9364 42.4718C75.6876 42.4718 74.6952 42.0937 73.9591 41.3374V46.1538H70.2128V31.5056H73.7816V32.5803C74.4783 31.7444 75.5299 31.3264 76.9364 31.3264ZM76.1477 39.4665C76.8049 39.4665 77.3439 39.241 77.7645 38.7899C78.1851 38.3255 78.3955 37.6952 78.3955 36.8991C78.3955 36.103 78.1851 35.4794 77.7645 35.0283C77.3439 34.5639 76.8049 34.3317 76.1477 34.3317C75.4905 34.3317 74.9515 34.5639 74.5309 35.0283C74.1103 35.4794 73.8999 36.103 73.8999 36.8991C73.8999 37.6952 74.1103 38.3255 74.5309 38.7899C74.9515 39.241 75.4905 39.4665 76.1477 39.4665Z" fill="#0A0A0A"/>
<path d="M89.6798 42.4718C88.5362 42.4718 87.5044 42.233 86.5842 41.7553C85.6641 41.2777 84.9411 40.6142 84.4154 39.7651C83.9027 38.9159 83.6464 37.954 83.6464 36.8792C83.6464 35.8178 83.9027 34.8624 84.4154 34.0133C84.9411 33.1641 85.6575 32.5073 86.5645 32.0429C87.4847 31.5653 88.5231 31.3264 89.6798 31.3264C90.8366 31.3264 91.875 31.5653 92.7952 32.0429C93.7153 32.5073 94.4317 33.1641 94.9443 34.0133C95.457 34.8492 95.7133 35.8045 95.7133 36.8792C95.7133 37.954 95.457 38.9159 94.9443 39.7651C94.4317 40.6142 93.7153 41.2777 92.7952 41.7553C91.875 42.233 90.8366 42.4718 89.6798 42.4718ZM89.6798 39.4665C90.3371 39.4665 90.876 39.241 91.2966 38.7899C91.7173 38.3255 91.9276 37.6886 91.9276 36.8792C91.9276 36.0831 91.7173 35.4595 91.2966 35.0084C90.876 34.5573 90.3371 34.3317 89.6798 34.3317C89.0226 34.3317 88.4837 34.5573 88.063 35.0084C87.6424 35.4595 87.4321 36.0831 87.4321 36.8792C87.4321 37.6886 87.6424 38.3255 88.063 38.7899C88.4837 39.241 89.0226 39.4665 89.6798 39.4665Z" fill="#0A0A0A"/>
<path d="M101.727 42.4718C100.833 42.4718 99.9528 42.3723 99.0852 42.1733C98.2177 41.961 97.521 41.689 96.9952 41.3573L98.1191 38.7699C98.6055 39.0751 99.1838 39.3206 99.8542 39.5063C100.525 39.6788 101.188 39.7651 101.846 39.7651C102.45 39.7651 102.878 39.7054 103.127 39.5859C103.39 39.4533 103.522 39.2675 103.522 39.0287C103.522 38.7899 103.364 38.624 103.048 38.5311C102.746 38.425 102.26 38.3255 101.589 38.2326C100.735 38.1264 100.005 37.9871 99.4007 37.8146C98.8092 37.6421 98.2966 37.3237 97.8628 36.8593C97.429 36.3949 97.2121 35.7448 97.2121 34.9089C97.2121 34.2189 97.4159 33.6086 97.8233 33.0779C98.2308 32.5339 98.8223 32.1093 99.5979 31.8041C100.387 31.4857 101.326 31.3264 102.417 31.3264C103.193 31.3264 103.962 31.406 104.724 31.5653C105.487 31.7245 106.124 31.95 106.637 32.242L105.513 34.8094C104.567 34.2786 103.541 34.0133 102.437 34.0133C101.846 34.0133 101.412 34.0862 101.136 34.2322C100.86 34.3649 100.722 34.544 100.722 34.7696C100.722 35.0217 100.873 35.2008 101.175 35.3069C101.478 35.3998 101.977 35.4993 102.674 35.6055C103.554 35.7381 104.284 35.8907 104.862 36.0632C105.441 36.2357 105.94 36.5541 106.361 37.0185C106.795 37.4697 107.012 38.1065 107.012 38.9292C107.012 39.6059 106.808 40.2162 106.4 40.7602C105.993 41.2909 105.388 41.7089 104.586 42.014C103.798 42.3192 102.845 42.4718 101.727 42.4718Z" fill="#0A0A0A"/>
<path d="M116.394 41.8548C116.079 42.0539 115.691 42.2064 115.231 42.3126C114.784 42.4187 114.304 42.4718 113.792 42.4718C112.398 42.4718 111.327 42.1268 110.578 41.4369C109.829 40.7469 109.454 39.7186 109.454 38.352V34.7298H107.896V31.9036H109.454V29.0974H113.2V31.9036H115.645V34.7298H113.2V38.3122C113.2 38.697 113.299 39.0021 113.496 39.2277C113.706 39.44 113.982 39.5461 114.324 39.5461C114.758 39.5461 115.139 39.4334 115.468 39.2078L116.394 41.8548Z" fill="#0A0A0A"/>
<path d="M15.0379 21.0138C15.0379 20.1792 14.8127 19.4973 14.346 18.9656C13.8841 18.4397 13.1522 18.1697 12.1573 18.1697C11.1338 18.1697 10.395 18.4416 9.93077 18.9656C9.47616 19.4992 9.23887 20.1792 9.23887 21.0138V32.389C9.23887 33.699 8.7935 34.8153 7.89351 35.7471C6.9929 36.6689 5.91277 37.1351 4.63378 37.1351C3.35467 37.1351 2.26481 36.6695 1.35509 35.7471C0.445376 34.8153 0 33.699 0 32.389V20.5575C0 17.2773 1.12754 14.4819 3.38261 12.172C5.63781 9.86228 8.56582 8.70732 12.1573 8.70732C15.114 8.70732 17.6247 9.49394 19.6814 11.0657C21.7284 9.49331 24.2391 8.70732 27.2049 8.70732C30.0606 8.70732 32.4921 9.44531 34.5051 10.9212C31.7863 13.5158 30.0855 17.2149 30.0855 21.3216V21.0138C30.0855 20.1792 29.8579 19.4998 29.3937 18.9656C28.9294 18.4416 28.1998 18.1697 27.2049 18.1697C26.1814 18.1697 25.4396 18.4397 24.9777 18.9656C24.511 19.4973 24.2859 20.1792 24.2859 21.0138V37.5465C24.2859 38.8566 23.843 39.9754 22.9405 40.9047C22.043 41.829 20.9409 42.2927 19.6528 42.2927C18.3925 42.2927 17.31 41.829 16.4028 40.9047C15.4906 39.9754 15.0379 38.8566 15.0379 37.5465V21.0138ZM30.0855 21.4606V21.3297C30.0855 21.3509 30.0861 21.3721 30.0861 21.3927C30.0855 21.4151 30.0855 21.4382 30.0855 21.4606Z" fill="#0A0A0A"/>
<path fill-rule="evenodd" clip-rule="evenodd" d="M46.2121 7.46341C54.0387 7.46341 60.3838 13.781 60.3838 21.5735C60.3838 29.3661 54.0393 35.6836 46.2121 35.6836C46.0871 35.6836 44.5331 35.6144 43.381 35.297V25.3223C44.1689 25.9131 45.1495 26.264 46.2121 26.264C48.8133 26.264 50.9224 24.164 50.9224 21.5741C50.9224 18.9843 48.8133 16.8844 46.2121 16.8844C43.6109 16.8844 41.5019 18.9843 41.5019 21.5741H41.4751V39.6693C41.4751 42.4808 39.3524 44.7805 36.7575 44.7805C34.1631 44.7805 32.0404 42.4802 32.0404 39.6693V21.7213C32.0404 21.6954 32.041 21.6701 32.041 21.6441C32.041 21.6205 32.0404 21.5971 32.0404 21.5735C32.0404 13.781 38.3849 7.46341 46.2121 7.46341Z" fill="#0A0A0A"/>
</svg>
