<svg width="24" height="24" viewBox="0 0 24 24" fill="none" xmlns="http://www.w3.org/2000/svg">
<path d="M20 11.0005C19.7554 9.24072 18.9391 7.61016 17.6766 6.36C16.4142 5.10983 14.7758 4.30942 13.0137 4.08205C11.2516 3.85469 9.46362 4.21298 7.9252 5.10175C6.38678 5.99051 5.18325 7.36044 4.5 9.0005M4 5.0005V9.0005H8" stroke="#FFF732" stroke-width="1.5" stroke-linecap="round" stroke-linejoin="round"/>
<path d="M4 13.0005C4.24456 14.7603 5.06093 16.3908 6.32336 17.641C7.58579 18.8912 9.22424 19.6916 10.9863 19.9189C12.7484 20.1463 14.5364 19.788 16.0748 18.8992C17.6132 18.0105 18.8168 16.6406 19.5 15.0005M20 19.0005V15.0005H16" stroke="#FFF732" stroke-width="1.5" stroke-linecap="round" stroke-linejoin="round"/>
</svg>
