<svg width="40" height="40" viewBox="0 0 40 40" fill="none" xmlns="http://www.w3.org/2000/svg">
<path fill-rule="evenodd" clip-rule="evenodd" d="M39.1937 5.3383C38.2124 3.01085 36.2429 1.24359 33.8235 0.519565C32.245 0.124888 30.619 -0.046394 28.9929 0.0107222H11.0071C9.38109 -0.0463935 7.75507 0.124889 6.17659 0.519565C3.75721 1.24359 1.78769 3.01085 0.806339 5.3383C0.197429 7.1626 -0.0705454 9.08343 0.015813 11.0048V28.9952C-0.0705552 30.9165 0.197419 32.8374 0.806339 34.6617C1.78769 36.9892 3.75722 38.7564 6.17659 39.4804C7.75507 39.8751 9.38109 40.0464 11.0071 39.9893H28.9929C30.6189 40.0464 32.2449 39.8751 33.8234 39.4804C36.2428 38.7564 38.2123 36.9892 39.1937 34.6617C39.8026 32.8374 40.0705 30.9165 39.9842 28.9952V11.0048C40.0706 9.08343 39.8026 7.1626 39.1937 5.3383Z" fill="white"/>
<path d="M19.6459 35.4165C26.4727 35.4165 32.007 29.889 32.007 23.0705C32.007 16.2521 26.4727 10.7246 19.6459 10.7246C12.819 10.7246 7.28479 16.2521 7.28479 23.0705C7.28479 29.889 12.819 35.4165 19.6459 35.4165Z" fill="#FFCC00"/>
<path fill-rule="evenodd" clip-rule="evenodd" d="M25.8355 10.486L25.8356 22.0357L25.8083 22.0448C25.8084 22.0498 25.8084 22.0547 25.8084 22.0596C25.8084 23.1893 25.7264 24.243 25.5732 24.7808C24.8366 27.3673 22.4537 29.2433 19.6278 29.2433C16.2144 29.2433 13.4835 26.4886 13.4835 23.0794C13.4835 19.6702 16.2144 16.9155 19.6278 16.9155C21.2361 16.9155 22.701 17.5291 23.8005 18.5346C24.1597 18.8632 24.48 19.2335 24.7535 19.638C24.6776 19.276 24.6028 18.8206 24.6028 18.4313V9.48016V4.54541L32.6474 7.00736V12.5829L25.8355 10.486Z" fill="#FF3333"/>
</svg>
