<svg width="61" height="54" viewBox="0 0 61 54" fill="none" xmlns="http://www.w3.org/2000/svg">
<path d="M15.848 20L15.8 11.096L11.48 18.344H9.368L5.072 11.336V20H0.68V3.2H4.592L10.496 12.896L16.256 3.2H20.168L20.216 20H15.848ZM29.1464 6.776C31.3064 6.776 32.9544 7.272 34.0904 8.264C35.2264 9.24 35.7944 10.744 35.7944 12.776V20H31.5464V18.32C30.8904 19.584 29.6104 20.216 27.7064 20.216C26.6984 20.216 25.8264 20.04 25.0904 19.688C24.3544 19.336 23.7944 18.864 23.4104 18.272C23.0424 17.664 22.8584 16.976 22.8584 16.208C22.8584 14.976 23.3304 14.024 24.2744 13.352C25.2184 12.664 26.6744 12.32 28.6424 12.32H31.2344C31.1544 10.944 30.2344 10.256 28.4744 10.256C27.8504 10.256 27.2184 10.36 26.5784 10.568C25.9384 10.76 25.3944 11.032 24.9464 11.384L23.4104 8.288C24.1304 7.808 25.0024 7.44 26.0264 7.184C27.0664 6.912 28.1064 6.776 29.1464 6.776ZM28.9784 17.336C29.5064 17.336 29.9704 17.208 30.3704 16.952C30.7704 16.696 31.0584 16.32 31.2344 15.824V14.696H29.2664C27.9384 14.696 27.2744 15.136 27.2744 16.016C27.2744 16.416 27.4264 16.736 27.7304 16.976C28.0344 17.216 28.4504 17.336 28.9784 17.336ZM38.9127 6.992H43.4727V20H38.9127V6.992ZM41.1927 5.552C40.3607 5.552 39.6887 5.32 39.1767 4.856C38.6647 4.392 38.4087 3.816 38.4087 3.128C38.4087 2.44 38.6647 1.864 39.1767 1.4C39.6887 0.935999 40.3607 0.704 41.1927 0.704C42.0247 0.704 42.6967 0.927999 43.2087 1.376C43.7207 1.808 43.9767 2.368 43.9767 3.056C43.9767 3.776 43.7207 4.376 43.2087 4.856C42.6967 5.32 42.0247 5.552 41.1927 5.552ZM55.1482 6.776C56.7642 6.776 58.0602 7.256 59.0362 8.216C60.0282 9.176 60.5242 10.624 60.5242 12.56V20H55.9642V13.304C55.9642 11.528 55.2522 10.64 53.8282 10.64C53.0442 10.64 52.4122 10.896 51.9322 11.408C51.4682 11.92 51.2362 12.688 51.2362 13.712V20H46.6762V6.992H51.0202V8.408C51.5322 7.88 52.1402 7.48 52.8442 7.208C53.5482 6.92 54.3162 6.776 55.1482 6.776ZM8.648 35.776C9.832 35.776 10.904 36.056 11.864 36.616C12.84 37.16 13.608 37.944 14.168 38.968C14.744 39.976 15.032 41.152 15.032 42.496C15.032 43.84 14.744 45.024 14.168 46.048C13.608 47.056 12.84 47.84 11.864 48.4C10.904 48.944 9.832 49.216 8.648 49.216C7.128 49.216 5.92 48.76 5.024 47.848V53.656H0.464V35.992H4.808V37.288C5.656 36.28 6.936 35.776 8.648 35.776ZM7.688 45.592C8.488 45.592 9.144 45.32 9.656 44.776C10.168 44.216 10.424 43.456 10.424 42.496C10.424 41.536 10.168 40.784 9.656 40.24C9.144 39.68 8.488 39.4 7.688 39.4C6.888 39.4 6.232 39.68 5.72 40.24C5.208 40.784 4.952 41.536 4.952 42.496C4.952 43.456 5.208 44.216 5.72 44.776C6.232 45.32 6.888 45.592 7.688 45.592ZM23.9195 49.216C22.5275 49.216 21.2715 48.928 20.1515 48.352C19.0315 47.776 18.1515 46.976 17.5115 45.952C16.8875 44.928 16.5755 43.768 16.5755 42.472C16.5755 41.192 16.8875 40.04 17.5115 39.016C18.1515 37.992 19.0235 37.2 20.1275 36.64C21.2475 36.064 22.5115 35.776 23.9195 35.776C25.3275 35.776 26.5915 36.064 27.7115 36.64C28.8315 37.2 29.7035 37.992 30.3275 39.016C30.9515 40.024 31.2635 41.176 31.2635 42.472C31.2635 43.768 30.9515 44.928 30.3275 45.952C29.7035 46.976 28.8315 47.776 27.7115 48.352C26.5915 48.928 25.3275 49.216 23.9195 49.216ZM23.9195 45.592C24.7195 45.592 25.3755 45.32 25.8875 44.776C26.3995 44.216 26.6555 43.448 26.6555 42.472C26.6555 41.512 26.3995 40.76 25.8875 40.216C25.3755 39.672 24.7195 39.4 23.9195 39.4C23.1195 39.4 22.4635 39.672 21.9515 40.216C21.4395 40.76 21.1835 41.512 21.1835 42.472C21.1835 43.448 21.4395 44.216 21.9515 44.776C22.4635 45.32 23.1195 45.592 23.9195 45.592ZM38.3439 49.216C37.2559 49.216 36.1839 49.096 35.1279 48.856C34.0719 48.6 33.2239 48.272 32.5839 47.872L33.9519 44.752C34.5439 45.12 35.2479 45.416 36.0639 45.64C36.8799 45.848 37.6879 45.952 38.4879 45.952C39.2239 45.952 39.7439 45.88 40.0479 45.736C40.3679 45.576 40.5279 45.352 40.5279 45.064C40.5279 44.776 40.3359 44.576 39.9519 44.464C39.5839 44.336 38.9919 44.216 38.1759 44.104C37.1359 43.976 36.2479 43.808 35.5119 43.6C34.7919 43.392 34.1679 43.008 33.6399 42.448C33.1119 41.888 32.8479 41.104 32.8479 40.096C32.8479 39.264 33.0959 38.528 33.5919 37.888C34.0879 37.232 34.8079 36.72 35.7519 36.352C36.7119 35.968 37.8559 35.776 39.1839 35.776C40.1279 35.776 41.0639 35.872 41.9919 36.064C42.9199 36.256 43.6959 36.528 44.3199 36.88L42.9519 39.976C41.7999 39.336 40.5519 39.016 39.2079 39.016C38.4879 39.016 37.9599 39.104 37.6239 39.28C37.2879 39.44 37.1199 39.656 37.1199 39.928C37.1199 40.232 37.3039 40.448 37.6719 40.576C38.0399 40.688 38.6479 40.808 39.4959 40.936C40.5679 41.096 41.4559 41.28 42.1599 41.488C42.8639 41.696 43.4719 42.08 43.9839 42.64C44.5119 43.184 44.7759 43.952 44.7759 44.944C44.7759 45.76 44.5279 46.496 44.0319 47.152C43.5359 47.792 42.7999 48.296 41.8239 48.664C40.8639 49.032 39.7039 49.216 38.3439 49.216ZM55.9569 48.472C55.5729 48.712 55.1009 48.896 54.5409 49.024C53.9969 49.152 53.4129 49.216 52.7889 49.216C51.0929 49.216 49.7889 48.8 48.8769 47.968C47.9649 47.136 47.5089 45.896 47.5089 44.248V39.88H45.6129V36.472H47.5089V33.088H52.0689V36.472H55.0449V39.88H52.0689V44.2C52.0689 44.664 52.1889 45.032 52.4289 45.304C52.6849 45.56 53.0209 45.688 53.4369 45.688C53.9649 45.688 54.4289 45.552 54.8289 45.28L55.9569 48.472Z" fill="#0A0A0A"/>
</svg>
