<svg width="248" height="52" viewBox="0 0 248 52" fill="none" xmlns="http://www.w3.org/2000/svg">
<path opacity="0.4" d="M-11.08 2.26049L-11.08 1.26049L-12.08 1.26049L-12.08 2.26049L-11.08 2.26049ZM1.352 2.26049L2.29737 1.9345L2.06496 1.26049L1.352 1.26049L1.352 2.26049ZM10.312 28.2445L9.36663 28.5705L10.318 31.3293L11.2586 28.5668L10.312 28.2445ZM19.16 2.26049L19.16 1.26049L18.4441 1.26049L18.2134 1.93815L19.16 2.26049ZM30.864 2.26049L31.864 2.26049L31.864 1.26049L30.864 1.26049L30.864 2.26049ZM30.864 38.6045L30.864 39.6045L31.864 39.6045L31.864 38.6045L30.864 38.6045ZM22.968 38.6045L21.968 38.6045L21.968 39.6045L22.968 39.6045L22.968 38.6045ZM22.968 11.7245L23.968 11.7245L23.968 10.7245L22.968 10.7245L22.968 11.7245ZM22.8 11.7245L22.8 10.7245L22.0849 10.7245L21.8537 11.4012L22.8 11.7245ZM13.616 38.6045L13.616 39.6045L14.3311 39.6045L14.5623 38.9278L13.616 38.6045ZM6.616 38.6045L5.67276 38.9366L5.90791 39.6045L6.616 39.6045L6.616 38.6045ZM-2.848 11.7245L-1.90476 11.3924L-2.13991 10.7245L-2.848 10.7245L-2.848 11.7245ZM-3.072 11.7245L-3.072 10.7245L-4.072 10.7245L-4.072 11.7245L-3.072 11.7245ZM-3.072 38.6045L-3.072 39.6045L-2.072 39.6045L-2.072 38.6045L-3.072 38.6045ZM-11.08 38.6045L-12.08 38.6045L-12.08 39.6045L-11.08 39.6045L-11.08 38.6045ZM-11.08 3.26049L1.352 3.26049L1.352 1.26049L-11.08 1.26049L-11.08 3.26049ZM0.406629 2.58648L9.36663 28.5705L11.2574 27.9185L2.29737 1.9345L0.406629 2.58648ZM11.2586 28.5668L20.1066 2.58283L18.2134 1.93815L9.36538 27.9221L11.2586 28.5668ZM19.16 3.26049L30.864 3.26049L30.864 1.26049L19.16 1.26049L19.16 3.26049ZM29.864 2.26049L29.864 38.6045L31.864 38.6045L31.864 2.26049L29.864 2.26049ZM30.864 37.6045L22.968 37.6045L22.968 39.6045L30.864 39.6045L30.864 37.6045ZM23.968 38.6045L23.968 11.7245L21.968 11.7245L21.968 38.6045L23.968 38.6045ZM22.968 10.7245L22.8 10.7245L22.8 12.7245L22.968 12.7245L22.968 10.7245ZM21.8537 11.4012L12.6697 38.2812L14.5623 38.9278L23.7463 12.0478L21.8537 11.4012ZM13.616 37.6045L6.616 37.6045L6.616 39.6045L13.616 39.6045L13.616 37.6045ZM7.55924 38.2724L-1.90476 11.3924L-3.79124 12.0566L5.67276 38.9366L7.55924 38.2724ZM-2.848 10.7245L-3.072 10.7245L-3.072 12.7245L-2.848 12.7245L-2.848 10.7245ZM-4.072 11.7245L-4.072 38.6045L-2.072 38.6045L-2.072 11.7245L-4.072 11.7245ZM-3.072 37.6045L-11.08 37.6045L-11.08 39.6045L-3.072 39.6045L-3.072 37.6045ZM-10.08 38.6045L-10.08 2.26049L-12.08 2.26049L-12.08 38.6045L-10.08 38.6045ZM40.3096 38.4925L39.9431 39.4229L39.9598 39.4295L39.9768 39.4355L40.3096 38.4925ZM37.6776 35.9725L36.7472 36.339L36.754 36.3563L36.7615 36.3733L37.6776 35.9725ZM37.7336 25.3885L36.8233 24.9747L36.818 24.9863L36.813 24.9979L37.7336 25.3885ZM40.3656 22.7565L40.7664 23.6726L40.773 23.6698L40.7794 23.6669L40.3656 22.7565ZM54.5896 21.9165L54.5896 22.9165L55.5896 22.9165L55.5896 21.9165L54.5896 21.9165ZM54.0856 17.4925L53.2033 17.9631L53.2151 17.9853L53.2281 18.007L54.0856 17.4925ZM52.3496 16.3165L52.0865 17.2813L52.0972 17.2841L52.3496 16.3165ZM39.0776 16.6525L38.0776 16.6525L38.0776 17.7698L39.1881 17.6464L39.0776 16.6525ZM39.0776 11.5005L38.952 10.5084L38.0776 10.6191L38.0776 11.5005L39.0776 11.5005ZM57.4456 11.7245L57.176 12.6875L57.1809 12.6888L57.4456 11.7245ZM61.5336 14.4125L60.6941 14.9557L61.5336 14.4125ZM62.7656 38.6045L62.7656 39.6045L63.7656 39.6045L63.7656 38.6045L62.7656 38.6045ZM54.7576 38.6045L53.7576 38.6045L53.7576 39.6045L54.7576 39.6045L54.7576 38.6045ZM54.7576 36.1405L55.7576 36.1405L55.7576 32.4572L53.8949 35.6348L54.7576 36.1405ZM52.1816 38.4365L51.7993 37.5125L51.7858 37.518L51.7726 37.524L52.1816 38.4365ZM52.7416 33.9005L52.6002 32.9105L52.5929 32.9116L52.5857 32.9127L52.7416 33.9005ZM53.8056 33.5645L53.2509 32.7324L53.2148 32.7565L53.1809 32.7836L53.8056 33.5645ZM54.3656 32.8365L53.4974 32.3404L53.4723 32.3842L53.4518 32.4304L54.3656 32.8365ZM54.5896 26.3965L55.5896 26.3965L55.5896 25.3965L54.5896 25.3965L54.5896 26.3965ZM46.3016 26.6765L46.5763 27.638L46.6075 27.6291L46.638 27.6182L46.3016 26.6765ZM45.2376 27.6845L46.171 28.0435L46.1753 28.0322L46.1794 28.0208L45.2376 27.6845ZM45.2376 32.8925L46.171 32.5335L45.2376 32.8925ZM46.3016 33.8445L46.0269 34.806L46.0354 34.8084L46.044 34.8107L46.3016 33.8445ZM46.0216 38.1645C43.5144 38.1645 41.7482 37.9398 40.6424 37.5495L39.9768 39.4355C41.4098 39.9412 43.4515 40.1645 46.0216 40.1645L46.0216 38.1645ZM40.6762 37.5621C39.6859 37.172 39.0086 36.5199 38.5938 35.5717L36.7615 36.3733C37.3919 37.8144 38.4693 38.8423 39.9431 39.4229L40.6762 37.5621ZM38.608 35.606C38.1923 34.5507 37.9496 32.8724 37.9496 30.4845L35.9496 30.4845C35.9496 32.9499 36.1923 34.9303 36.7472 36.339L38.608 35.606ZM37.9496 30.4845C37.9496 28.3804 38.2064 26.8345 38.6542 25.779L36.813 24.9979C36.2155 26.4064 35.9496 28.2579 35.9496 30.4845L37.9496 30.4845ZM38.644 25.8023C39.1062 24.7855 39.807 24.0924 40.7664 23.6726L39.9648 21.8403C38.5349 22.4659 37.4811 23.5274 36.8233 24.9747L38.644 25.8023ZM40.7794 23.6669C41.8283 23.1901 43.3474 22.9165 45.4056 22.9165L45.4056 20.9165C43.2079 20.9165 41.3669 21.2029 39.9518 21.8461L40.7794 23.6669ZM45.4056 22.9165L54.5896 22.9165L54.5896 20.9165L45.4056 20.9165L45.4056 22.9165ZM55.5896 21.9165L55.5896 20.0685L53.5896 20.0685L53.5896 21.9165L55.5896 21.9165ZM55.5896 20.0685C55.5896 18.8511 55.4195 17.772 54.9431 16.978L53.2281 18.007C53.4237 18.333 53.5896 18.9712 53.5896 20.0685L55.5896 20.0685ZM54.968 17.0219C54.4924 16.1301 53.6202 15.6145 52.6021 15.3489L52.0972 17.2841C52.7964 17.4665 53.0816 17.7349 53.2033 17.9631L54.968 17.0219ZM52.6127 15.3517C51.6581 15.0914 50.298 14.9805 48.5976 14.9805L48.5976 16.9805C50.2573 16.9805 51.3985 17.0936 52.0865 17.2813L52.6127 15.3517ZM48.5976 14.9805C46.2286 14.9805 43.013 15.2091 38.9672 15.6586L39.1881 17.6464C43.2062 17.1999 46.3373 16.9805 48.5976 16.9805L48.5976 14.9805ZM40.0776 16.6525L40.0776 11.5005L38.0776 11.5005L38.0776 16.6525L40.0776 16.6525ZM39.2032 12.4926C42.0999 12.1259 45.5095 11.9405 49.4376 11.9405L49.4376 9.94049C45.4511 9.94049 41.9541 10.1284 38.952 10.5084L39.2032 12.4926ZM49.4376 11.9405C52.8783 11.9405 55.4404 12.2015 57.176 12.6875L57.7153 10.7615C55.7175 10.2022 52.941 9.94049 49.4376 9.94049L49.4376 11.9405ZM57.1809 12.6888C58.9222 13.1668 60.0427 13.9491 60.6941 14.9557L62.3732 13.8692C61.3819 12.3372 59.777 11.3275 57.7103 10.7602L57.1809 12.6888ZM60.6941 14.9557C61.365 15.9926 61.7656 17.6164 61.7656 19.9565L63.7656 19.9565C63.7656 17.4432 63.3449 15.371 62.3732 13.8692L60.6941 14.9557ZM61.7656 19.9565L61.7656 38.6045L63.7656 38.6045L63.7656 19.9565L61.7656 19.9565ZM62.7656 37.6045L54.7576 37.6045L54.7576 39.6045L62.7656 39.6045L62.7656 37.6045ZM55.7576 38.6045L55.7576 36.1405L53.7576 36.1405L53.7576 38.6045L55.7576 38.6045ZM53.8949 35.6348C53.3622 36.5436 52.6658 37.1539 51.7993 37.5125L52.564 39.3605C53.8628 38.8231 54.8838 37.9027 55.6203 36.6462L53.8949 35.6348ZM51.7726 37.524C51.3679 37.7054 50.7012 37.8725 49.7123 37.9894C48.7378 38.1046 47.5106 38.1645 46.0216 38.1645L46.0216 40.1645C47.5567 40.1645 48.8681 40.1031 49.947 39.9756C51.0114 39.8498 51.9127 39.6529 52.5907 39.349L51.7726 37.524ZM49.2136 35.0685C50.8594 35.0685 52.104 35.0136 52.8976 34.8883L52.5857 32.9127C51.9605 33.0114 50.8532 33.0685 49.2136 33.0685L49.2136 35.0685ZM52.883 34.8904C53.4164 34.8142 54.0145 34.678 54.4303 34.3454L53.1809 32.7836C53.2222 32.7506 53.2164 32.7697 53.0985 32.8069C52.9899 32.8412 52.8279 32.878 52.6002 32.9105L52.883 34.8904ZM54.3603 34.3965C54.7897 34.1103 55.0804 33.6905 55.2794 33.2426L53.4518 32.4304C53.3522 32.6545 53.2695 32.72 53.2509 32.7324L54.3603 34.3965ZM55.2339 33.3326C55.5118 32.8463 55.5896 32.2456 55.5896 31.6605L53.5896 31.6605C53.5896 32.1207 53.5181 32.304 53.4974 32.3404L55.2339 33.3326ZM55.5896 31.6605L55.5896 26.3965L53.5896 26.3965L53.5896 31.6605L55.5896 31.6605ZM54.5896 25.3965L48.9896 25.3965L48.9896 27.3965L54.5896 27.3965L54.5896 25.3965ZM48.9896 25.3965C47.7151 25.3965 46.6653 25.4848 45.9653 25.7347L46.638 27.6182C46.9833 27.4949 47.7254 27.3965 48.9896 27.3965L48.9896 25.3965ZM46.0269 25.715C45.1864 25.9551 44.5883 26.5293 44.2959 27.3482L46.1794 28.0208C46.2603 27.7944 46.3715 27.6965 46.5763 27.638L46.0269 25.715ZM44.3043 27.3255C44.0437 28.003 43.9576 29.0515 43.9576 30.3165L45.9576 30.3165C45.9576 29.0428 46.0582 28.3366 46.171 28.0435L44.3043 27.3255ZM43.9576 30.3165C43.9576 31.5485 44.0444 32.5757 44.3043 33.2515L46.171 32.5335C46.0576 32.2387 45.9576 31.5485 45.9576 30.3165L43.9576 30.3165ZM44.3043 33.2515C44.6095 34.0451 45.2183 34.575 46.0269 34.806L46.5763 32.883C46.3396 32.8153 46.239 32.7105 46.171 32.5335L44.3043 33.2515ZM46.044 34.8107C46.7433 34.9972 47.8319 35.0685 49.2136 35.0685L49.2136 33.0685C47.8326 33.0685 46.9799 32.9904 46.5593 32.8783L46.044 34.8107ZM70.183 1.70049L70.183 0.70049L69.183 0.70049L69.183 1.70049L70.183 1.70049ZM78.359 1.70049L79.359 1.70049L79.359 0.70049L78.359 0.70049L78.359 1.70049ZM78.359 8.30849L78.359 9.30849L79.359 9.30849L79.359 8.30849L78.359 8.30849ZM70.183 8.30849L69.183 8.30849L69.183 9.30849L70.183 9.30849L70.183 8.30849ZM70.183 11.5005L70.183 10.5005L69.183 10.5005L69.183 11.5005L70.183 11.5005ZM78.359 11.5005L79.359 11.5005L79.359 10.5005L78.359 10.5005L78.359 11.5005ZM78.359 38.6045L78.359 39.6045L79.359 39.6045L79.359 38.6045L78.359 38.6045ZM70.183 38.6045L69.183 38.6045L69.183 39.6045L70.183 39.6045L70.183 38.6045ZM70.183 2.70049L78.359 2.70049L78.359 0.70049L70.183 0.70049L70.183 2.70049ZM77.359 1.70049L77.359 8.30849L79.359 8.30849L79.359 1.70049L77.359 1.70049ZM78.359 7.30849L70.183 7.30849L70.183 9.30849L78.359 9.30849L78.359 7.30849ZM71.183 8.30849L71.183 1.70049L69.183 1.70049L69.183 8.30849L71.183 8.30849ZM70.183 12.5005L78.359 12.5005L78.359 10.5005L70.183 10.5005L70.183 12.5005ZM77.359 11.5005L77.359 38.6045L79.359 38.6045L79.359 11.5005L77.359 11.5005ZM78.359 37.6045L70.183 37.6045L70.183 39.6045L78.359 39.6045L78.359 37.6045ZM71.183 38.6045L71.183 11.5005L69.183 11.5005L69.183 38.6045L71.183 38.6045ZM85.7637 11.5005L85.7637 10.5005L84.7637 10.5005L84.7637 11.5005L85.7637 11.5005ZM93.8277 11.5005L94.8277 11.5005L94.8277 10.5005L93.8277 10.5005L93.8277 11.5005ZM93.8277 14.8045L92.8277 14.8045L94.7987 15.0437L93.8277 14.8045ZM109.788 12.8445L109.111 13.5808L109.121 13.5903L109.132 13.5995L109.788 12.8445ZM111.916 38.6045L111.916 39.6045L112.916 39.6045L112.916 38.6045L111.916 38.6045ZM103.74 38.6045L102.74 38.6045L102.74 39.6045L103.74 39.6045L103.74 38.6045ZM103.404 17.4365L102.462 17.7728L102.472 17.802L102.485 17.8304L103.404 17.4365ZM102.172 16.3165L101.821 17.2528L101.83 17.2562L101.839 17.2595L102.172 16.3165ZM95.8437 16.3165L96.0862 17.2866L96.1088 17.281L96.131 17.2743L95.8437 16.3165ZM93.9397 38.6045L93.9397 39.6045L94.9397 39.6045L94.9397 38.6045L93.9397 38.6045ZM85.7637 38.6045L84.7637 38.6045L84.7637 39.6045L85.7637 39.6045L85.7637 38.6045ZM85.7637 12.5005L93.8277 12.5005L93.8277 10.5005L85.7637 10.5005L85.7637 12.5005ZM92.8277 11.5005L92.8277 14.8045L94.8277 14.8045L94.8277 11.5005L92.8277 11.5005ZM94.7987 15.0437C95.0275 14.1151 95.6547 13.3657 96.8804 12.8201C98.1435 12.2578 99.9945 11.9405 102.508 11.9405L102.508 9.94049C99.8688 9.94049 97.6972 10.2672 96.067 10.9929C94.3994 11.7353 93.2626 12.9179 92.8567 14.5653L94.7987 15.0437ZM102.508 11.9405C105.919 11.9405 108.018 12.5763 109.111 13.5808L110.464 12.1082C108.795 10.574 106.04 9.94049 102.508 9.94049L102.508 11.9405ZM109.132 13.5995C110.251 14.5711 110.916 16.1977 110.916 18.7245L112.916 18.7245C112.916 15.8753 112.162 13.5819 110.443 12.0895L109.132 13.5995ZM110.916 18.7245L110.916 38.6045L112.916 38.6045L112.916 18.7245L110.916 18.7245ZM111.916 37.6045L103.74 37.6045L103.74 39.6045L111.916 39.6045L111.916 37.6045ZM104.74 38.6045L104.74 19.7885L102.74 19.7885L102.74 38.6045L104.74 38.6045ZM104.74 19.7885C104.74 18.7022 104.628 17.7542 104.323 17.0426L102.485 17.8304C102.628 18.1641 102.74 18.7841 102.74 19.7885L104.74 19.7885ZM104.345 17.1002C104.036 16.2334 103.356 15.6742 102.505 15.3735L101.839 17.2595C102.256 17.4068 102.398 17.5942 102.462 17.7728L104.345 17.1002ZM102.523 15.3802C101.75 15.0903 100.666 14.9805 99.3717 14.9805L99.3717 16.9805C100.616 16.9805 101.399 17.0947 101.821 17.2528L102.523 15.3802ZM99.3717 14.9805C97.7493 14.9805 96.4504 15.0904 95.5563 15.3587L96.131 17.2743C96.7303 17.0945 97.7834 16.9805 99.3717 16.9805L99.3717 14.9805ZM95.6012 15.3463C94.6668 15.5799 93.8676 16.0727 93.4373 16.9333L95.2261 17.8277C95.3185 17.643 95.5272 17.4264 96.0862 17.2866L95.6012 15.3463ZM93.4373 16.9333C93.0698 17.6682 92.9397 18.6614 92.9397 19.7885L94.9397 19.7885C94.9397 18.7502 95.0709 18.1381 95.2261 17.8277L93.4373 16.9333ZM92.9397 19.7885L92.9397 38.6045L94.9397 38.6045L94.9397 19.7885L92.9397 19.7885ZM93.9397 37.6045L85.7637 37.6045L85.7637 39.6045L93.9397 39.6045L93.9397 37.6045ZM86.7637 38.6045L86.7637 11.5005L84.7637 11.5005L84.7637 38.6045L86.7637 38.6045ZM131.975 11.5005L131.975 10.5005L130.975 10.5005L130.975 11.5005L131.975 11.5005ZM139.703 11.5005L140.703 11.5005L140.703 10.5005L139.703 10.5005L139.703 11.5005ZM139.703 14.1885L138.703 14.1885L140.629 14.5649L139.703 14.1885ZM142.559 11.6685L142.235 10.7223L142.559 11.6685ZM154.543 11.5005L154.288 12.4676L154.294 12.4692L154.543 11.5005ZM157.847 13.2925L158.603 12.6389L158.595 12.6292L158.587 12.6198L157.847 13.2925ZM159.303 16.0365L158.335 16.2875L158.337 16.2965L159.303 16.0365ZM158.519 35.1885L159.399 35.6626V35.6626L158.519 35.1885ZM154.879 38.2685L154.537 37.3287L154.53 37.3313L154.879 38.2685ZM142.447 38.4925L142.798 37.5562L142.447 38.4925ZM140.151 35.8605L141.119 35.6115L139.151 35.8605L140.151 35.8605ZM140.151 50.2525L140.151 51.2525L141.151 51.2525L141.151 50.2525L140.151 50.2525ZM131.975 50.2525L130.975 50.2525L130.975 51.2525L131.975 51.2525L131.975 50.2525ZM149.391 33.7325L149.654 34.6973L149.391 33.7325ZM151.071 32.5565L151.953 33.0271L151.071 32.5565ZM151.127 17.3805L150.22 17.8034L150.226 17.8156L150.232 17.8277L151.127 17.3805ZM142.167 16.3725L141.863 15.4195L141.85 15.4238L142.167 16.3725ZM140.543 17.6045L139.66 17.1339L139.648 17.1574L139.636 17.1816L140.543 17.6045ZM140.543 32.5565L139.636 32.9794L139.648 33.0035L139.66 33.0271L140.543 32.5565ZM142.167 33.7325L142.441 32.771L142.167 33.7325ZM131.975 12.5005L139.703 12.5005L139.703 10.5005L131.975 10.5005L131.975 12.5005ZM138.703 11.5005L138.703 14.1885L140.703 14.1885L140.703 11.5005L138.703 11.5005ZM140.629 14.5649C140.987 13.6832 141.688 13.0231 142.882 12.6147L142.235 10.7223C140.592 11.2845 139.389 12.3044 138.776 13.8121L140.629 14.5649ZM142.882 12.6147C144.142 12.1836 146.119 11.9405 148.887 11.9405L148.887 9.94049C146.055 9.94049 143.812 10.1827 142.235 10.7223L142.882 12.6147ZM148.887 11.9405C151.198 11.9405 152.987 12.1252 154.288 12.4676L154.797 10.5334C153.261 10.1292 151.28 9.94049 148.887 9.94049L148.887 11.9405ZM154.294 12.4692C155.626 12.8107 156.53 13.3313 157.107 13.9652L158.587 12.6198C157.67 11.6111 156.371 10.937 154.791 10.5318L154.294 12.4692ZM157.09 13.9461C157.703 14.6563 158.113 15.4344 158.335 16.2875L160.271 15.7855C159.969 14.6226 159.409 13.5714 158.603 12.6389L157.09 13.9461ZM158.337 16.2965C158.565 17.1433 158.695 18.3864 158.695 20.0685L160.695 20.0685C160.695 18.3159 160.563 16.871 160.268 15.7765L158.337 16.2965ZM158.695 20.0685L158.695 28.9725L160.695 28.9725L160.695 20.0685L158.695 20.0685ZM158.695 28.9725C158.695 31.5873 158.309 33.4681 157.638 34.7144L159.399 35.6626C160.296 33.9969 160.695 31.7337 160.695 28.9725L158.695 28.9725ZM157.638 34.7144C156.978 35.9412 155.963 36.81 154.537 37.3287L155.22 39.2083C157.079 38.5323 158.492 37.3477 159.399 35.6626L157.638 34.7144ZM154.53 37.3313C153.085 37.8691 151.017 38.1645 148.271 38.1645L148.271 40.1645C151.124 40.1645 153.462 39.8626 155.227 39.2057L154.53 37.3313ZM148.271 38.1645C145.6 38.1645 143.813 37.9368 142.798 37.5562L142.096 39.4288C143.47 39.9441 145.566 40.1645 148.271 40.1645L148.271 38.1645ZM142.798 37.5562C141.929 37.2303 141.379 36.6235 141.119 35.6115L139.182 36.1095C139.594 37.7109 140.575 38.8586 142.096 39.4288L142.798 37.5562ZM139.151 35.8605L139.151 50.2525L141.151 50.2525L141.151 35.8605L139.151 35.8605ZM140.151 49.2525L131.975 49.2525L131.975 51.2525L140.151 51.2525L140.151 49.2525ZM132.975 50.2525L132.975 11.5005L130.975 11.5005L130.975 50.2525L132.975 50.2525ZM145.751 35.0685C147.381 35.0685 148.702 34.9569 149.654 34.6973L149.128 32.7677C148.437 32.956 147.331 33.0685 145.751 33.0685L145.751 35.0685ZM149.654 34.6973C150.646 34.4265 151.485 33.9046 151.953 33.0271L150.188 32.0859C150.059 32.3284 149.778 32.5904 149.128 32.7677L149.654 34.6973ZM151.953 33.0271C152.367 32.2501 152.519 31.2127 152.519 30.0365L150.519 30.0365C150.519 31.1003 150.371 31.7428 150.188 32.0859L151.953 33.0271ZM152.519 30.0365L152.519 20.0125L150.519 20.0125L150.519 30.0365L152.519 30.0365ZM152.519 20.0125C152.519 18.7606 152.394 17.6793 152.021 16.9333L150.232 17.8277C150.382 18.127 150.519 18.8004 150.519 20.0125L152.519 20.0125ZM152.033 16.9576C151.605 16.0411 150.773 15.5218 149.79 15.2877L149.327 17.2333C149.912 17.3725 150.125 17.5999 150.22 17.8034L152.033 16.9576ZM149.79 15.2877C148.883 15.0717 147.494 14.9805 145.695 14.9805L145.695 16.9805C147.48 16.9805 148.666 17.0759 149.327 17.2333L149.79 15.2877ZM145.695 14.9805C144.128 14.9805 142.831 15.1118 141.863 15.4196L142.47 17.3254C143.145 17.1105 144.2 16.9805 145.695 16.9805L145.695 14.9805ZM141.85 15.4238C140.899 15.7408 140.112 16.2861 139.66 17.1339L141.425 18.0751C141.57 17.8029 141.866 17.5268 142.483 17.3212L141.85 15.4238ZM139.636 17.1816C139.285 17.9354 139.151 18.9087 139.151 20.0125L141.151 20.0125C141.151 19.0256 141.278 18.3936 141.449 18.0274L139.636 17.1816ZM139.151 20.0125L139.151 30.0365L141.151 30.0365L141.151 20.0125L139.151 20.0125ZM139.151 30.0365C139.151 31.2027 139.282 32.2192 139.636 32.9794L141.449 32.1336C141.281 31.7738 141.151 31.1103 141.151 30.0365L139.151 30.0365ZM139.66 33.0271C140.12 33.8896 140.925 34.4178 141.892 34.694L142.441 32.771C141.84 32.5991 141.562 32.3434 141.425 32.0859L139.66 33.0271ZM141.892 34.694C142.815 34.9577 144.124 35.0685 145.751 35.0685L145.751 33.0685C144.167 33.0685 143.087 32.9553 142.441 32.771L141.892 34.694ZM174.948 38.9965L175.051 38.0018L174.948 38.9965ZM171.476 38.3245L171.208 39.288L171.213 39.2893L171.476 38.3245ZM168.228 36.7565L167.574 37.5133L167.584 37.522L167.594 37.5304L168.228 36.7565ZM166.156 33.7885L167.071 33.3848L167.066 33.3747L166.156 33.7885ZM166.156 16.5965L167.079 16.9811L166.156 16.5965ZM168.34 13.4605L167.71 12.6832L167.705 12.6877L167.699 12.6923L168.34 13.4605ZM171.42 11.8925L171.727 12.8439L171.736 12.8413L171.744 12.8384L171.42 11.8925ZM175.228 11.0525L175.175 10.0539L175.156 10.0549L175.137 10.0566L175.228 11.0525ZM183.18 11.1085L183.069 12.1024L183.089 12.1045L183.108 12.1059L183.18 11.1085ZM186.596 11.7805L186.888 10.8241L186.886 10.8235L186.596 11.7805ZM189.844 13.4605L189.19 14.2173L189.198 14.2245L189.207 14.2315L189.844 13.4605ZM192.028 16.4845L192.951 16.0999L192.944 16.0842L192.937 16.0687L192.028 16.4845ZM192.028 33.7325L191.113 33.3288L191.108 33.3402L191.103 33.3517L192.028 33.7325ZM189.956 36.7005L189.319 35.9295L189.308 35.9386L189.956 36.7005ZM186.876 38.2685L187.158 39.2279L187.167 39.2253L187.175 39.2225L186.876 38.2685ZM183.124 38.9965L183.033 38.0006L183.024 38.0015L183.124 38.9965ZM182.564 33.7325L182.838 34.694L182.859 34.688L182.88 34.6812L182.564 33.7325ZM184.188 32.5565L183.346 32.0157L183.332 32.0377L183.319 32.0604L184.188 32.5565ZM183.516 16.8765L184.122 16.0811L183.516 16.8765ZM173.94 32.5565L173.071 33.0526L173.084 33.0753L173.098 33.0972L173.94 32.5565ZM175.62 33.7325L175.303 34.6812L175.324 34.688L175.345 34.694L175.62 33.7325ZM179.092 38.1645C177.43 38.1645 176.086 38.1089 175.051 38.0018L174.845 39.9912C175.975 40.1081 177.394 40.1645 179.092 40.1645L179.092 38.1645ZM175.051 38.0018C174.03 37.8963 172.927 37.6838 171.739 37.3597L171.213 39.2893C172.488 39.6372 173.7 39.8727 174.845 39.9912L175.051 38.0018ZM171.743 37.361C170.493 37.0136 169.547 36.5437 168.861 35.9825L167.594 37.5304C168.551 38.3133 169.77 38.8887 171.208 39.288L171.743 37.361ZM168.881 35.9997C168.199 35.4103 167.587 34.555 167.071 33.3849L165.241 34.1921C165.844 35.5606 166.614 36.684 167.574 37.5133L168.881 35.9997ZM167.066 33.3747C166.58 32.3051 166.316 30.961 166.316 29.3085L164.316 29.3085C164.316 31.1653 164.611 32.8079 165.245 34.2023L167.066 33.3747ZM166.316 29.3085L166.316 21.3005L164.316 21.3005L164.316 29.3085L166.316 29.3085ZM166.316 21.3005C166.316 19.6109 166.58 18.1786 167.079 16.9811L165.233 16.2119C164.612 17.7024 164.316 19.406 164.316 21.3005L166.316 21.3005ZM167.079 16.9811C167.592 15.7497 168.235 14.8497 168.98 14.2287L167.699 12.6923C166.653 13.5646 165.839 14.7553 165.233 16.2119L167.079 16.9811ZM168.969 14.2377C169.632 13.7009 170.539 13.2283 171.727 12.8439L171.112 10.941C169.761 11.378 168.615 11.9508 167.71 12.6832L168.969 14.2377ZM171.744 12.8384C172.984 12.4134 174.174 12.1524 175.318 12.0484L175.137 10.0566C173.817 10.1766 172.469 10.4756 171.095 10.9465L171.744 12.8384ZM175.28 12.0511C176.685 11.9772 177.955 11.9405 179.092 11.9405L179.092 9.94049C177.913 9.94049 176.607 9.97848 175.175 10.0539L175.28 12.0511ZM179.092 11.9405C180.794 11.9405 182.114 11.9963 183.069 12.1024L183.29 10.1146C182.229 9.9967 180.824 9.94049 179.092 9.94049L179.092 11.9405ZM183.108 12.1059C184.065 12.1743 185.129 12.3811 186.306 12.7375L186.886 10.8235C185.598 10.4333 184.385 10.192 183.251 10.111L183.108 12.1059ZM186.303 12.7368C187.552 13.1183 188.5 13.6215 189.19 14.2173L190.497 12.7037C189.544 11.8808 188.327 11.264 186.888 10.8241L186.303 12.7368ZM189.207 14.2315C189.92 14.8208 190.566 15.6926 191.118 16.9003L192.937 16.0687C192.295 14.663 191.484 13.5189 190.481 12.6895L189.207 14.2315ZM191.105 16.8691C191.602 18.0621 191.868 19.5302 191.868 21.3005L193.868 21.3005C193.868 19.3375 193.574 17.5948 192.951 16.0999L191.105 16.8691ZM191.868 21.3005L191.868 29.3085L193.868 29.3085L193.868 21.3005L191.868 21.3005ZM191.868 29.3085C191.868 30.8782 191.606 32.2106 191.113 33.3288L192.943 34.1361C193.569 32.7158 193.868 31.0988 193.868 29.3085L191.868 29.3085ZM191.103 33.3517C190.628 34.5042 190.025 35.3463 189.319 35.9295L190.593 37.4715C191.604 36.636 192.381 35.4995 192.952 34.1132L191.103 33.3517ZM189.308 35.9386C188.695 36.4594 187.802 36.9291 186.576 37.3145L187.175 39.2225C188.563 38.7866 189.723 38.2109 190.603 37.4624L189.308 35.9386ZM186.593 37.3091C185.382 37.6653 184.196 37.8949 183.033 38.0006L183.214 39.9924C184.515 39.8741 185.83 39.6183 187.158 39.2279L186.593 37.3091ZM183.024 38.0015C181.947 38.1091 180.638 38.1645 179.092 38.1645L179.092 40.1645C180.681 40.1645 182.06 40.1078 183.223 39.9915L183.024 38.0015ZM179.092 35.0685C180.649 35.0685 181.918 34.9569 182.838 34.694L182.289 32.771C181.641 32.9561 180.596 33.0685 179.092 33.0685L179.092 35.0685ZM182.88 34.6812C183.81 34.3712 184.596 33.8573 185.056 33.0526L183.319 32.0604C183.182 32.301 182.885 32.5711 182.247 32.7838L182.88 34.6812ZM185.029 33.0972C185.515 32.3416 185.692 31.3522 185.692 30.2605L183.692 30.2605C183.692 31.1848 183.533 31.726 183.346 32.0157L185.029 33.0972ZM185.692 30.2605L185.692 20.0125L183.692 20.0125L183.692 30.2605L185.692 30.2605ZM185.692 20.0125C185.692 18.3726 185.261 16.9492 184.122 16.0811L182.91 17.6719C183.338 17.9984 183.692 18.6658 183.692 20.0125L185.692 20.0125ZM184.122 16.0811C183.563 15.6554 182.835 15.3894 182.02 15.2244C181.196 15.0575 180.215 14.9805 179.092 14.9805L179.092 16.9805C180.134 16.9805 180.973 17.0529 181.623 17.1846C182.283 17.3183 182.684 17.5003 182.91 17.6719L184.122 16.0811ZM179.092 14.9805C177.969 14.9805 176.987 15.0575 176.163 15.2244C175.348 15.3894 174.62 15.6554 174.062 16.0811L175.274 17.6719C175.499 17.5003 175.9 17.3183 176.56 17.1846C177.211 17.0529 178.049 16.9805 179.092 16.9805L179.092 14.9805ZM174.062 16.0811C172.922 16.9492 172.492 18.3726 172.492 20.0125L174.492 20.0125C174.492 18.6658 174.845 17.9984 175.274 17.6719L174.062 16.0811ZM172.492 20.0125L172.492 30.2605L174.492 30.2605L174.492 20.0125L172.492 20.0125ZM172.492 30.2605C172.492 31.3387 172.646 32.3089 173.071 33.0526L174.808 32.0604C174.636 31.7587 174.492 31.1983 174.492 30.2605L172.492 30.2605ZM173.098 33.0972C173.593 33.8669 174.375 34.3716 175.303 34.6812L175.936 32.7838C175.297 32.5707 174.958 32.2914 174.781 32.0157L173.098 33.0972ZM175.345 34.694C176.265 34.9569 177.534 35.0685 179.092 35.0685L179.092 33.0685C177.588 33.0685 176.542 32.9561 175.894 32.771L175.345 34.694ZM198.68 38.3245L197.68 38.3245L197.68 39.2005L198.549 39.3158L198.68 38.3245ZM198.68 32.8925L198.83 31.9037L197.68 31.7301L197.68 32.8925L198.68 32.8925ZM213.296 33.5645L213.675 34.49L213.296 33.5645ZM213.744 28.0765L213.126 28.8628L213.144 28.8769L213.163 28.8902L213.744 28.0765ZM200.472 25.7805L199.878 26.5851L199.885 26.5897L199.891 26.5942L200.472 25.7805ZM201.48 12.4525L201.878 13.3701L201.891 13.3644L201.48 12.4525ZM221.248 11.4445L222.248 11.4445L222.248 10.5144L221.321 10.4471L221.248 11.4445ZM221.248 16.6525L221.172 17.6495L222.248 17.7324L222.248 16.6525L221.248 16.6525ZM207.08 16.4285L206.674 15.5147L206.631 15.5338L206.59 15.5569L207.08 16.4285ZM206.912 21.0205L206.303 21.8131L206.322 21.8284L206.343 21.8427L206.912 21.0205ZM221.864 34.8525L220.97 34.4053L221.864 34.8525ZM219.96 37.1485L220.534 37.9678L220.541 37.9622L219.96 37.1485ZM217.048 38.3805L216.806 37.4103L216.798 37.4122L217.048 38.3805ZM213.408 38.9965L213.32 38.0003L213.312 38.0011L213.408 38.9965ZM209.376 38.1645C206.523 38.1645 203.005 37.8898 198.812 37.3332L198.549 39.3158C202.793 39.8792 206.405 40.1645 209.376 40.1645L209.376 38.1645ZM199.68 38.3245L199.68 32.8925L197.68 32.8925L197.68 38.3245L199.68 38.3245ZM198.531 33.8813C203.716 34.6646 207.388 35.0685 209.488 35.0685L209.488 33.0685C207.557 33.0685 204.024 32.6884 198.83 31.9037L198.531 33.8813ZM209.488 35.0685C211.237 35.0685 212.667 34.9023 213.675 34.49L212.918 32.6389C212.283 32.8987 211.174 33.0685 209.488 33.0685L209.488 35.0685ZM213.675 34.49C214.233 34.2617 214.716 33.9099 215.052 33.4052C215.388 32.9011 215.528 32.3199 215.528 31.7165L213.528 31.7165C213.528 32.0091 213.463 32.1838 213.388 32.2958C213.314 32.407 213.181 32.5313 212.918 32.6389L213.675 34.49ZM215.528 31.7165L215.528 30.0365L213.528 30.0365L213.528 31.7165L215.528 31.7165ZM215.528 30.0365C215.528 28.9352 215.216 27.8987 214.325 27.2628L213.163 28.8902C213.318 29.001 213.528 29.2711 213.528 30.0365L215.528 30.0365ZM214.362 27.2902C213.926 26.9478 213.366 26.7514 212.778 26.6339C212.178 26.5139 211.468 26.4605 210.664 26.4605L210.664 28.4605C211.391 28.4605 211.959 28.5097 212.386 28.5951C212.825 28.6829 213.039 28.7945 213.126 28.8628L214.362 27.2902ZM210.664 26.4605L207.136 26.4605L207.136 28.4605L210.664 28.4605L210.664 26.4605ZM207.136 26.4605C204.373 26.4605 202.387 25.9193 201.053 24.9668L199.891 26.5942C201.693 27.8817 204.15 28.4605 207.136 28.4605L207.136 26.4605ZM201.066 24.9759C199.789 24.0336 199.12 22.6732 199.12 20.7405L197.12 20.7405C197.12 23.2131 198.019 25.2127 199.878 26.5851L201.066 24.9759ZM199.12 20.7405L199.12 17.4365L197.12 17.4365L197.12 20.7405L199.12 20.7405ZM199.12 17.4365C199.12 16.4242 199.359 15.6239 199.789 14.9855C200.221 14.3446 200.895 13.7962 201.878 13.37L201.083 11.5349C199.826 12.0795 198.819 12.8471 198.131 13.8675C197.441 14.8904 197.12 16.0967 197.12 17.4365L199.12 17.4365ZM201.891 13.3644C203.934 12.4447 207.141 11.9405 211.616 11.9405L211.616 9.94049C207.057 9.94049 203.506 10.4443 201.07 11.5406L201.891 13.3644ZM211.616 11.9405C213.367 11.9405 216.545 12.1057 221.176 12.4419L221.321 10.4471C216.693 10.1113 213.449 9.94049 211.616 9.94049L211.616 11.9405ZM220.248 11.4445L220.248 16.6525L222.248 16.6525L222.248 11.4445L220.248 11.4445ZM221.325 15.6554C215.53 15.2097 212.189 14.9805 211.392 14.9805L211.392 16.9805C212.089 16.9805 215.318 17.1993 221.172 17.6495L221.325 15.6554ZM211.392 14.9805C210.272 14.9805 209.325 15.0183 208.559 15.0978C207.816 15.175 207.159 15.299 206.674 15.5147L207.486 17.3423C207.673 17.2593 208.071 17.1593 208.766 17.0871C209.437 17.0174 210.31 16.9805 211.392 16.9805L211.392 14.9805ZM206.59 15.5569C205.58 16.1249 205.184 17.1472 205.184 18.2765L207.184 18.2765C207.184 17.6138 207.386 17.404 207.571 17.3001L206.59 15.5569ZM205.184 18.2765L205.184 19.7325L207.184 19.7325L207.184 18.2765L205.184 18.2765ZM205.184 19.7325C205.184 20.6079 205.642 21.305 206.303 21.8131L207.522 20.2279C207.212 19.9893 207.184 19.8277 207.184 19.7325L205.184 19.7325ZM206.343 21.8427C207.067 22.344 208.013 22.5245 209.04 22.5245L209.04 20.5245C208.201 20.5245 207.728 20.369 207.481 20.1983L206.343 21.8427ZM209.04 22.5245L212.624 22.5245L212.624 20.5245L209.04 20.5245L209.04 22.5245ZM212.624 22.5245C215.87 22.5245 218.132 23.0591 219.554 23.9863C220.903 24.8651 221.592 26.1563 221.592 28.0205L223.592 28.0205C223.592 25.554 222.62 23.5972 220.646 22.3107C218.746 21.0725 216.024 20.5245 212.624 20.5245L212.624 22.5245ZM221.592 28.0205L221.592 31.4365L223.592 31.4365L223.592 28.0205L221.592 28.0205ZM221.592 31.4365C221.592 32.6192 221.373 33.599 220.97 34.4053L222.759 35.2997C223.326 34.1647 223.592 32.8671 223.592 31.4365L221.592 31.4365ZM220.97 34.4053C220.548 35.2487 220.014 35.881 219.379 36.3348L220.541 37.9622C221.474 37.296 222.21 36.3976 222.759 35.2997L220.97 34.4053ZM219.387 36.3293C218.769 36.762 217.921 37.1316 216.806 37.4104L217.291 39.3506C218.565 39.0321 219.659 38.5804 220.534 37.9677L219.387 36.3293ZM216.798 37.4122C215.698 37.6963 214.539 37.8929 213.32 38.0004L213.496 39.9926C214.817 39.8761 216.084 39.662 217.298 39.3488L216.798 37.4122ZM213.312 38.0011C212.195 38.1093 210.884 38.1645 209.376 38.1645L209.376 40.1645C210.93 40.1645 212.307 40.1077 213.505 39.9918L213.312 38.0011ZM238.742 38.9965L238.861 38.0036L238.742 38.9965ZM235.942 38.3245L236.281 37.3836L236.265 37.3778L236.248 37.3725L235.942 38.3245ZM233.366 36.9245L232.681 37.6527L232.691 37.6624L232.702 37.6719L233.366 36.9245ZM231.798 34.4605L232.729 34.0948L232.726 34.0865L232.722 34.0781L231.798 34.4605ZM231.126 16.5405L232.126 16.5405L232.126 15.5405L231.126 15.5405L231.126 16.5405ZM225.638 16.5405L224.638 16.5405L224.638 17.5405L225.638 17.5405L225.638 16.5405ZM225.638 11.5005L225.638 10.5005L224.638 10.5005L224.638 11.5005L225.638 11.5005ZM231.126 11.5005L231.126 12.5005L232.126 12.5005L232.126 11.5005L231.126 11.5005ZM231.126 3.66049L231.126 2.66049L230.126 2.66049L230.126 3.66049L231.126 3.66049ZM239.302 3.66049L240.302 3.66049L240.302 2.66049L239.302 2.66049L239.302 3.66049ZM239.302 11.5005L238.302 11.5005L238.302 12.5005L239.302 12.5005L239.302 11.5005ZM246.75 11.5005L247.75 11.5005L247.75 10.5005L246.75 10.5005L246.75 11.5005ZM246.75 16.5405L246.75 17.5405L247.75 17.5405L247.75 16.5405L246.75 16.5405ZM239.302 16.5405L239.302 15.5405L238.302 15.5405L238.302 16.5405L239.302 16.5405ZM239.638 32.2765L238.689 32.5927L238.692 32.601L238.695 32.6093L239.638 32.2765ZM240.926 33.6765L240.5 34.5813L240.523 34.5918L240.545 34.6012L240.926 33.6765ZM246.75 33.7885L247.75 33.7885L247.75 32.6483L246.62 32.797L246.75 33.7885ZM246.75 38.8845L246.856 39.8789L247.75 39.7838L247.75 38.8845L246.75 38.8845ZM242.214 38.1645C240.856 38.1645 239.741 38.1092 238.861 38.0036L238.623 39.9894C239.609 40.1078 240.81 40.1645 242.214 40.1645L242.214 38.1645ZM238.861 38.0036C238.007 37.9011 237.147 37.6955 236.281 37.3836L235.603 39.2654C236.604 39.6255 237.611 39.8679 238.623 39.9894L238.861 38.0036ZM236.248 37.3725C235.307 37.0698 234.578 36.664 234.03 36.1771L232.702 37.6719C233.498 38.3797 234.487 38.9072 235.636 39.2765L236.248 37.3725ZM234.051 36.1963C233.551 35.725 233.101 35.0409 232.729 34.0948L230.867 34.8261C231.317 35.9707 231.912 36.9293 232.681 37.6527L234.051 36.1963ZM232.722 34.0781C232.334 33.1394 232.126 32.0229 232.126 30.7085L230.126 30.7085C230.126 32.2314 230.367 33.6163 230.874 34.8428L232.722 34.0781ZM232.126 30.7085L232.126 16.5405L230.126 16.5405L230.126 30.7085L232.126 30.7085ZM231.126 15.5405L225.638 15.5405L225.638 17.5405L231.126 17.5405L231.126 15.5405ZM226.638 16.5405L226.638 11.5005L224.638 11.5005L224.638 16.5405L226.638 16.5405ZM225.638 12.5005L231.126 12.5005L231.126 10.5005L225.638 10.5005L225.638 12.5005ZM232.126 11.5005L232.126 3.66049L230.126 3.66049L230.126 11.5005L232.126 11.5005ZM231.126 4.66049L239.302 4.66049L239.302 2.66049L231.126 2.66049L231.126 4.66049ZM238.302 3.66049L238.302 11.5005L240.302 11.5005L240.302 3.66049L238.302 3.66049ZM239.302 12.5005L246.75 12.5005L246.75 10.5005L239.302 10.5005L239.302 12.5005ZM245.75 11.5005L245.75 16.5405L247.75 16.5405L247.75 11.5005L245.75 11.5005ZM246.75 15.5405L239.302 15.5405L239.302 17.5405L246.75 17.5405L246.75 15.5405ZM238.302 16.5405L238.302 29.3085L240.302 29.3085L240.302 16.5405L238.302 16.5405ZM238.302 29.3085C238.302 30.648 238.414 31.7662 238.689 32.5927L240.587 31.9603C240.414 31.4428 240.302 30.5823 240.302 29.3085L238.302 29.3085ZM238.695 32.6093C239.012 33.5078 239.635 34.1742 240.5 34.5813L241.352 32.7717C240.948 32.5815 240.712 32.3146 240.581 31.9437L238.695 32.6093ZM240.545 34.6012C241.366 34.9391 242.497 35.0685 243.838 35.0685L243.838 33.0685C242.566 33.0685 241.756 32.9366 241.307 32.7518L240.545 34.6012ZM243.838 35.0685C244.436 35.0685 245.468 34.9658 246.881 34.7799L246.62 32.797C245.195 32.9846 244.286 33.0685 243.838 33.0685L243.838 35.0685ZM245.75 33.7885L245.75 38.8845L247.75 38.8845L247.75 33.7885L245.75 33.7885ZM246.644 37.8901C244.912 38.0744 243.438 38.1645 242.214 38.1645L242.214 40.1645C243.529 40.1645 245.079 40.068 246.856 39.8789L246.644 37.8901Z" fill="white"/>
</svg>
