<svg width="29" height="29" viewBox="0 0 29 29" fill="none" xmlns="http://www.w3.org/2000/svg">
<path d="M7.25 18.125C9.25203 18.125 10.875 16.502 10.875 14.5C10.875 12.498 9.25203 10.875 7.25 10.875C5.24797 10.875 3.625 12.498 3.625 14.5C3.625 16.502 5.24797 18.125 7.25 18.125Z" stroke="#FFF732" stroke-width="1.5" stroke-linecap="round" stroke-linejoin="round"/>
<path d="M21.75 10.875C23.752 10.875 25.375 9.25203 25.375 7.25C25.375 5.24797 23.752 3.625 21.75 3.625C19.748 3.625 18.125 5.24797 18.125 7.25C18.125 9.25203 19.748 10.875 21.75 10.875Z" stroke="#FFF732" stroke-width="1.5" stroke-linecap="round" stroke-linejoin="round"/>
<path d="M21.75 25.375C23.752 25.375 25.375 23.752 25.375 21.75C25.375 19.748 23.752 18.125 21.75 18.125C19.748 18.125 18.125 19.748 18.125 21.75C18.125 23.752 19.748 25.375 21.75 25.375Z" stroke="#FFF732" stroke-width="1.5" stroke-linecap="round" stroke-linejoin="round"/>
<path d="M10.5117 12.9291L18.4867 8.8208" stroke="#FFF732" stroke-width="1.5" stroke-linecap="round" stroke-linejoin="round"/>
<path d="M10.5117 16.0708L18.4867 20.1791" stroke="#FFF732" stroke-width="1.5" stroke-linecap="round" stroke-linejoin="round"/>
</svg>
