<svg width="100" height="100" viewBox="0 0 100 100" fill="none" xmlns="http://www.w3.org/2000/svg">
<rect width="100" height="100" fill="#0A0A0A"/>
<mask id="mask0" mask-type="alpha" maskUnits="userSpaceOnUse" x="22" y="26" width="56" height="48">
<path d="M28.2632 72.2505L28.2434 68.9048L26.4596 71.6283H25.5875L23.8136 68.995V72.2505H22V65.9379H23.6153L26.0532 69.5812L28.4317 65.9379H30.047L30.0668 72.2505H28.2632Z" fill="white"/>
<path d="M33.8535 67.2816C34.7454 67.2816 35.4259 67.4679 35.895 67.8407C36.3641 68.2074 36.5986 68.7726 36.5986 69.5361V72.2505H34.8445V71.6193C34.5736 72.0942 34.0451 72.3317 33.2589 72.3317C32.8427 72.3317 32.4826 72.2655 32.1787 72.1333C31.8748 72.001 31.6436 71.8237 31.485 71.6012C31.333 71.3728 31.2571 71.1142 31.2571 70.8257C31.2571 70.3627 31.452 70.005 31.8418 69.7525C32.2316 69.494 32.8328 69.3647 33.6454 69.3647H34.7157C34.6827 68.8477 34.3028 68.5892 33.576 68.5892C33.3184 68.5892 33.0574 68.6283 32.7931 68.7064C32.5289 68.7786 32.3042 68.8808 32.1192 69.013L31.485 67.8497C31.7823 67.6693 32.1424 67.5311 32.5652 67.4349C32.9946 67.3327 33.4241 67.2816 33.8535 67.2816ZM33.7841 71.2495C34.0022 71.2495 34.1938 71.2014 34.3589 71.1052C34.5241 71.009 34.643 70.8677 34.7157 70.6814V70.2575H33.9031C33.3547 70.2575 33.0805 70.4229 33.0805 70.7535C33.0805 70.9038 33.1433 71.0241 33.2688 71.1142C33.3943 71.2044 33.5661 71.2495 33.7841 71.2495Z" fill="white"/>
<path d="M37.9853 67.3627H39.8683V72.2505H37.9853V67.3627ZM38.9268 66.8216C38.5832 66.8216 38.3058 66.7345 38.0943 66.5601C37.8829 66.3858 37.7772 66.1693 37.7772 65.9108C37.7772 65.6523 37.8829 65.4359 38.0943 65.2615C38.3058 65.0872 38.5832 65 38.9268 65C39.2703 65 39.5478 65.0842 39.7592 65.2525C39.9707 65.4148 40.0764 65.6253 40.0764 65.8838C40.0764 66.1543 39.9707 66.3798 39.7592 66.5601C39.5478 66.7345 39.2703 66.8216 38.9268 66.8216Z" fill="white"/>
<path d="M44.7884 67.2816C45.4557 67.2816 45.9908 67.4619 46.3938 67.8227C46.8035 68.1834 47.0083 68.7275 47.0083 69.4549V72.2505H45.1253V69.7345C45.1253 69.0671 44.8313 68.7335 44.2433 68.7335C43.9196 68.7335 43.6586 68.8297 43.4604 69.0221C43.2688 69.2144 43.173 69.503 43.173 69.8878V72.2505H41.2901V67.3627H43.0839V67.8948C43.2953 67.6964 43.5463 67.5461 43.837 67.4439C44.1277 67.3357 44.4448 67.2816 44.7884 67.2816Z" fill="white"/>
<path d="M56.1679 67.2815C56.6568 67.2815 57.0995 67.3868 57.4959 67.5972C57.8989 67.8016 58.216 68.0962 58.4472 68.4809C58.6851 68.8597 58.804 69.3016 58.804 69.8066C58.804 70.3116 58.6851 70.7565 58.4472 71.1413C58.216 71.52 57.8989 71.8146 57.4959 72.025C57.0995 72.2295 56.6568 72.3317 56.1679 72.3317C55.5403 72.3317 55.0415 72.1603 54.6715 71.8176V74H52.7886V67.3627H54.5823V67.8497C54.9325 67.4709 55.461 67.2815 56.1679 67.2815ZM55.7715 70.9699C56.1019 70.9699 56.3727 70.8677 56.5841 70.6633C56.7956 70.4529 56.9013 70.1673 56.9013 69.8066C56.9013 69.4459 56.7956 69.1633 56.5841 68.9589C56.3727 68.7485 56.1019 68.6433 55.7715 68.6433C55.4412 68.6433 55.1703 68.7485 54.9589 68.9589C54.7475 69.1633 54.6418 69.4459 54.6418 69.8066C54.6418 70.1673 54.7475 70.4529 54.9589 70.6633C55.1703 70.8677 55.4412 70.9699 55.7715 70.9699Z" fill="white"/>
<path d="M62.573 72.3317C61.9982 72.3317 61.4795 72.2234 61.0171 72.007C60.5546 71.7906 60.1912 71.49 59.9269 71.1052C59.6693 70.7204 59.5405 70.2846 59.5405 69.7976C59.5405 69.3166 59.6693 68.8838 59.9269 68.499C60.1912 68.1142 60.5513 67.8166 61.0072 67.6062C61.4696 67.3898 61.9916 67.2815 62.573 67.2815C63.1543 67.2815 63.6763 67.3898 64.1388 67.6062C64.6012 67.8166 64.9613 68.1142 65.2189 68.499C65.4766 68.8777 65.6054 69.3106 65.6054 69.7976C65.6054 70.2846 65.4766 70.7204 65.2189 71.1052C64.9613 71.49 64.6012 71.7906 64.1388 72.007C63.6763 72.2234 63.1543 72.3317 62.573 72.3317ZM62.573 70.9699C62.9033 70.9699 63.1742 70.8677 63.3856 70.6633C63.597 70.4529 63.7027 70.1643 63.7027 69.7976C63.7027 69.4369 63.597 69.1543 63.3856 68.9499C63.1742 68.7455 62.9033 68.6433 62.573 68.6433C62.2426 68.6433 61.9717 68.7455 61.7603 68.9499C61.5489 69.1543 61.4432 69.4369 61.4432 69.7976C61.4432 70.1643 61.5489 70.4529 61.7603 70.6633C61.9717 70.8677 62.2426 70.9699 62.573 70.9699Z" fill="white"/>
<path d="M68.6282 72.3317C68.1789 72.3317 67.7363 72.2866 67.3002 72.1964C66.8642 72.1002 66.514 71.9769 66.2497 71.8266L66.8146 70.6543C67.0591 70.7926 67.3498 70.9038 67.6867 70.988C68.0237 71.0661 68.3573 71.1052 68.6876 71.1052C68.9915 71.1052 69.2062 71.0781 69.3318 71.024C69.4639 70.9639 69.53 70.8798 69.53 70.7715C69.53 70.6633 69.4507 70.5882 69.2921 70.5461C69.1402 70.498 68.8957 70.4529 68.5588 70.4108C68.1294 70.3627 67.7627 70.2996 67.4588 70.2214C67.1615 70.1433 66.9038 69.999 66.6858 69.7886C66.4678 69.5781 66.3588 69.2836 66.3588 68.9048C66.3588 68.5922 66.4612 68.3156 66.666 68.0751C66.8708 67.8286 67.1681 67.6363 67.5579 67.498C67.9543 67.3537 68.4267 67.2815 68.975 67.2815C69.3648 67.2815 69.7513 67.3176 70.1345 67.3898C70.5177 67.4619 70.8381 67.5641 71.0958 67.6964L70.5309 68.8597C70.0552 68.6192 69.5399 68.499 68.9849 68.499C68.6876 68.499 68.4696 68.5321 68.3309 68.5982C68.1921 68.6583 68.1228 68.7395 68.1228 68.8417C68.1228 68.9559 68.1987 69.0371 68.3507 69.0852C68.5026 69.1272 68.7537 69.1723 69.1039 69.2204C69.5465 69.2806 69.9132 69.3497 70.2039 69.4278C70.4946 69.506 70.7456 69.6503 70.957 69.8607C71.1751 70.0651 71.2841 70.3537 71.2841 70.7264C71.2841 71.0331 71.1817 71.3096 70.9769 71.5561C70.772 71.7966 70.4681 71.986 70.0651 72.1242C69.6687 72.2625 69.1897 72.3317 68.6282 72.3317Z" fill="white"/>
<path d="M76 72.0521C75.8414 72.1423 75.6465 72.2114 75.4153 72.2595C75.1907 72.3076 74.9495 72.3317 74.6919 72.3317C73.9916 72.3317 73.4531 72.1753 73.0766 71.8627C72.7 71.5501 72.5117 71.0842 72.5117 70.4649V68.8236H71.7288V67.5431H72.5117V66.2715H74.3946V67.5431H75.6234V68.8236H74.3946V70.4469C74.3946 70.6212 74.4441 70.7595 74.5432 70.8617C74.6489 70.9579 74.7877 71.006 74.9594 71.006C75.1775 71.006 75.3691 70.9549 75.5342 70.8527L76 72.0521Z" fill="white"/>
<path d="M35.9461 38.9927C35.9461 38.2472 35.7373 37.6381 35.3045 37.1632C34.8762 36.6934 34.1974 36.4523 33.2747 36.4523C32.3255 36.4523 31.6403 36.6951 31.2098 37.1632C30.7882 37.6398 30.5681 38.2472 30.5681 38.9927V49.1535C30.5681 50.3237 30.1551 51.3208 29.3204 52.1532C28.4852 52.9766 27.4835 53.393 26.2974 53.393C25.1111 53.393 24.1004 52.9771 23.2567 52.1532C22.413 51.3208 22 50.3237 22 49.1535V38.5851C22 35.6551 23.0457 33.1581 25.137 31.0948C27.2285 29.0317 29.9439 28 33.2747 28C36.0167 28 38.3451 28.7026 40.2525 30.1066C42.1509 28.7021 44.4793 28 47.2298 28C49.8783 28 52.1332 28.6592 54 29.9775C51.4786 32.2951 49.9013 35.5993 49.9013 39.2677V38.9927C49.9013 38.2472 49.6903 37.6404 49.2597 37.1632C48.8291 36.6951 48.1525 36.4523 47.2298 36.4523C46.2806 36.4523 45.5927 36.6934 45.1644 37.1632C44.7315 37.6381 44.5227 38.2472 44.5227 38.9927V53.7605C44.5227 54.9307 44.112 55.9301 43.275 56.7602C42.4427 57.5858 41.4206 58 40.226 58C39.0572 58 38.0533 57.5858 37.212 56.7602C36.366 55.9301 35.9461 54.9307 35.9461 53.7605V38.9927ZM49.9013 39.3918V39.2749C49.9013 39.2938 49.9019 39.3128 49.9019 39.3312C49.9013 39.3512 49.9013 39.3718 49.9013 39.3918Z" fill="white"/>
<path fill-rule="evenodd" clip-rule="evenodd" d="M64.5 26C71.9556 26 78 31.756 78 38.8559C78 45.9557 71.9562 51.7117 64.5 51.7117C64.3809 51.7117 62.9006 51.6487 61.8031 51.3595V42.2714C62.5536 42.8097 63.4877 43.1294 64.5 43.1294C66.9778 43.1294 68.987 41.2161 68.987 38.8564C68.987 36.4968 66.9778 34.5836 64.5 34.5836C62.022 34.5836 60.013 36.4968 60.013 38.8564H59.9875V55.3432C59.9875 57.9047 57.9654 60 55.4935 60C53.0221 60 51 57.9041 51 55.3432V38.9906C51 38.9669 51.0006 38.9438 51.0006 38.9202C51.0006 38.8987 51 38.8773 51 38.8559C51 31.756 57.0438 26 64.5 26Z" fill="white"/>
</mask>
<g mask="url(#mask0)">
<path d="M8 19H92V89H8V19Z" fill="url(#paint0_linear)"/>
</g>
<defs>
<linearGradient id="paint0_linear" x1="8" y1="42.6858" x2="111" y2="42.6858" gradientUnits="userSpaceOnUse">
<stop offset="0.0001" stop-color="#FF1686"/>
<stop offset="1" stop-color="#0085FF"/>
</linearGradient>
</defs>
</svg>
