<svg width="38" height="260" viewBox="0 0 38 260" fill="none" xmlns="http://www.w3.org/2000/svg">
<path d="M37.344 0.919999L37.344 13.352L11.36 22.312L37.344 31.16L37.344 42.864L0.999998 42.864L0.999998 34.968L27.88 34.968L27.88 34.8L0.999999 25.616L0.999999 18.616L27.88 9.152L27.88 8.928L0.999999 8.928L1 0.919998L37.344 0.919999ZM0.439997 58.0216C0.439997 55.483 0.663998 53.579 1.112 52.3096C1.59733 51.0776 2.43733 50.2003 3.632 49.6776C4.864 49.1923 6.69333 48.9496 9.12 48.9496C11.2853 48.9496 12.984 49.211 14.216 49.7336C15.448 50.2936 16.3253 51.171 16.848 52.3656C17.408 53.5976 17.688 55.2776 17.688 57.4056L17.688 66.5896L19.536 66.5896C20.6933 66.5896 21.552 66.4216 22.112 66.0856C22.672 65.787 23.064 65.2083 23.288 64.3496C23.512 63.5283 23.624 62.2776 23.624 60.5976C23.624 58.283 23.4 55.1096 22.952 51.0776L28.104 51.0776C28.4773 54.027 28.664 57.4803 28.664 61.4376C28.664 64.9096 28.4027 67.579 27.88 69.4456C27.3573 71.3496 26.4613 72.7123 25.192 73.5336C23.9227 74.355 22.0747 74.7656 19.648 74.7656L0.999997 74.7656L0.999997 66.7576L3.464 66.7576C2.38133 66.123 1.616 65.2643 1.168 64.1816C0.682664 63.099 0.439997 61.0456 0.439997 58.0216ZM5.536 61.2136C5.536 62.8563 5.592 64.0323 5.704 64.7416C5.77866 65.2643 5.89066 65.619 6.04 65.8056C6.18933 66.0296 6.432 66.2163 6.768 66.3656C7.02933 66.515 7.42133 66.5896 7.944 66.5896L13.208 66.5896L13.208 60.9896C13.208 59.7203 13.1147 58.8243 12.928 58.3016C12.7787 57.779 12.4427 57.4243 11.92 57.2376C11.4347 57.051 10.5573 56.9576 9.288 56.9576C8.056 56.9576 7.19733 57.051 6.712 57.2376C6.22666 57.4243 5.90933 57.779 5.76 58.3016C5.61066 58.8616 5.536 59.8323 5.536 61.2136ZM37.904 82.183L37.904 90.359L31.296 90.359L31.296 82.183L37.904 82.183ZM28.104 82.183L28.104 90.359L0.999996 90.359L0.999996 82.183L28.104 82.183ZM28.104 97.7637L28.104 105.828L24.8 105.828C27.376 106.462 28.664 109.356 28.664 114.508C28.664 117.98 28.0293 120.406 26.76 121.788C25.528 123.206 23.568 123.916 20.88 123.916L0.999994 123.916L0.999995 115.74L19.816 115.74C20.8613 115.74 21.6453 115.628 22.168 115.404C22.6907 115.217 23.064 114.806 23.288 114.172C23.512 113.574 23.624 112.641 23.624 111.372C23.624 109.766 23.512 108.59 23.288 107.844C23.1013 107.097 22.7467 106.593 22.224 106.332C21.7013 106.07 20.8987 105.94 19.816 105.94L0.999995 105.94L0.999996 97.7637L28.104 97.7637ZM37.344 144.311L37.344 158.871C37.344 162.417 37.1013 165.217 36.616 167.271C36.1307 169.361 35.272 170.873 34.04 171.807C32.8453 172.777 31.1653 173.263 29 173.263L22.112 173.263C19.7227 173.263 17.856 172.74 16.512 171.695C15.168 170.687 14.216 169.063 13.656 166.823C13.096 164.62 12.816 161.633 12.816 157.863L12.816 153.047L0.999993 153.047L0.999994 144.311L37.344 144.311ZM18.808 158.591C18.808 160.868 19.0693 162.473 19.592 163.407C20.152 164.34 21.0853 164.807 22.392 164.807L28.216 164.807C29.4107 164.807 30.1947 164.359 30.568 163.463C30.9413 162.604 31.128 160.943 31.128 158.479L31.128 153.047L18.808 153.047L18.808 158.591ZM0.439991 192.076C0.439992 190.396 0.495992 189.015 0.607992 187.932C0.719992 186.849 0.943992 185.692 1.27999 184.46C1.65333 183.116 2.17599 182.033 2.84799 181.212C3.55733 180.391 4.54666 179.7 5.81599 179.14C7.04799 178.58 8.54133 178.3 10.296 178.3L18.304 178.3C20.096 178.3 21.664 178.58 23.008 179.14C24.352 179.7 25.3973 180.428 26.144 181.324C26.7787 182.108 27.3013 183.135 27.712 184.404C28.16 185.711 28.44 186.98 28.552 188.212C28.6267 189.631 28.664 190.919 28.664 192.076C28.664 193.793 28.608 195.156 28.496 196.164C28.4213 197.209 28.1973 198.348 27.824 199.58C27.4133 200.924 26.8533 202.007 26.144 202.828C25.4347 203.687 24.4267 204.415 23.12 205.012C21.776 205.572 20.1707 205.852 18.304 205.852L10.296 205.852C8.61599 205.852 7.14132 205.572 5.87199 205.012C4.60266 204.489 3.61332 203.799 2.90399 202.94C2.26932 202.193 1.74666 201.167 1.33599 199.86C0.962658 198.591 0.719991 197.34 0.607991 196.108C0.495991 194.988 0.439991 193.644 0.439991 192.076ZM5.53599 192.076C5.53599 193.607 5.64799 194.764 5.87199 195.548C6.13332 196.332 6.52532 196.873 7.04799 197.172C7.57066 197.508 8.33599 197.676 9.34399 197.676L19.592 197.676C21.0853 197.676 22.1307 197.284 22.728 196.5C23.3253 195.716 23.624 194.241 23.624 192.076C23.624 189.911 23.3253 188.436 22.728 187.652C22.1307 186.868 21.0853 186.476 19.592 186.476L9.34399 186.476C8.33599 186.476 7.57066 186.625 7.04799 186.924C6.52533 187.26 6.13333 187.82 5.87199 188.604C5.64799 189.388 5.53599 190.545 5.53599 192.076ZM0.43999 222.361C0.43999 219.449 0.71999 215.883 1.27999 211.665L6.71199 211.665C5.92799 216.854 5.53599 220.457 5.53599 222.473C5.53599 224.19 5.70399 225.459 6.03999 226.281C6.37599 227.102 6.99199 227.513 7.88799 227.513L9.56799 227.513C10.5013 227.513 11.1547 227.251 11.528 226.729C11.9387 226.206 12.144 225.179 12.144 223.649L12.144 220.121C12.144 217.246 12.704 215.025 13.824 213.457C14.9813 211.889 16.6613 211.105 18.864 211.105L22.168 211.105C24.52 211.105 26.1813 212.225 27.152 214.465C28.16 216.705 28.664 220.083 28.664 224.601C28.664 226.393 28.496 229.603 28.16 234.233L22.952 234.233C23.4 228.409 23.624 225.123 23.624 224.377C23.624 222.174 23.4747 220.737 23.176 220.065C22.84 219.467 22.224 219.169 21.328 219.169L19.872 219.169C19.3867 219.169 18.9573 219.411 18.584 219.897C18.248 220.382 18.08 221.091 18.08 222.025L18.08 225.609C18.08 232.254 15.9147 235.577 11.584 235.577L8.16799 235.577C6.86132 235.577 5.72266 235.334 4.75199 234.849C3.78132 234.363 3.01599 233.729 2.45599 232.945C1.93332 232.198 1.52266 231.227 1.22399 230.033C0.925323 228.875 0.71999 227.662 0.60799 226.393C0.49599 225.235 0.43999 223.891 0.43999 222.361ZM0.439989 255.198C0.439989 253.817 0.495989 252.66 0.607989 251.726C0.719989 250.793 0.943989 249.86 1.27999 248.926C1.61599 247.881 2.08266 247.022 2.67999 246.35C3.27732 245.716 4.09866 245.193 5.14399 244.782C6.22666 244.334 7.47732 244.11 8.89599 244.11L23.064 244.11L23.064 238.622L28.104 238.622L28.104 244.11L35.944 244.11L35.944 252.286L28.104 252.286L28.104 259.735L23.064 259.735L23.064 252.286L10.296 252.286C8.98932 252.286 7.99999 252.398 7.32799 252.622C6.69332 252.846 6.22666 253.276 5.92799 253.91C5.66666 254.545 5.53599 255.516 5.53599 256.822C5.53599 257.345 5.62932 258.316 5.81599 259.734L0.719988 259.734C0.533322 257.98 0.439989 256.468 0.439989 255.198Z" fill="#00FBEC"/>
</svg>
