<svg width="15" height="22" viewBox="0 0 15 22" fill="none" xmlns="http://www.w3.org/2000/svg">
<path d="M5 11.0646C4.20888 11.0646 3.43552 11.3395 2.77772 11.8547C2.11992 12.3698 1.60723 13.102 1.30448 13.9587C1.00173 14.8153 0.92252 15.758 1.07686 16.6674C1.2312 17.5768 1.61216 18.4122 2.17157 19.0678C2.73098 19.7235 3.44372 20.17 4.21964 20.3509C4.99556 20.5318 5.79983 20.4389 6.53074 20.0841C7.26164 19.7293 7.88635 19.1284 8.32588 18.3574C8.76541 17.5864 9 16.68 9 15.7528V1.68819C9 3.24243 9.52679 4.733 10.4645 5.83201C11.4021 6.93102 12.6739 7.54844 14 7.54844" stroke="black" stroke-width="1.7" stroke-linecap="round" stroke-linejoin="round"/>
</svg>
