<svg width="395" height="313" viewBox="0 0 395 313" fill="none" xmlns="http://www.w3.org/2000/svg">
<path d="M128.904 146.374C144.25 153.125 156.22 163.251 164.814 176.753C173.407 190.255 177.704 206.212 177.704 224.624C177.704 251.014 169.417 272.494 152.844 289.065C136.27 305.022 115.093 313 89.3124 313C63.5315 313 42.0474 304.715 24.8601 288.144C8.28671 271.574 0 250.4 0 224.624C0 212.349 1.53458 200.074 4.60373 187.8C7.67288 175.525 14.425 157.114 24.8601 132.565L78.2634 0H169.417L128.904 146.374ZM346.2 146.374C361.546 153.125 373.516 163.251 382.11 176.753C390.703 190.255 395 206.212 395 224.624C395 251.014 386.713 272.494 370.14 289.065C353.566 305.022 332.389 313 306.608 313C280.828 313 259.343 304.715 242.156 288.144C225.583 271.574 217.296 250.4 217.296 224.624C217.296 212.349 218.831 200.074 221.9 187.8C224.969 175.525 231.721 157.114 242.156 132.565L295.559 0H386.713L346.2 146.374Z" fill="black" fill-opacity="0.06"/>
</svg>
